<mxfile host="app.diagrams.net" agent="Mozilla/5.0 (Windows NT 10.0; Win64; x64) AppleWebKit/537.36 (KHTML, like Gecko) Chrome/136.0.0.0 Safari/537.36" version="27.0.5">
  <diagram name="Page-1" id="gURoz_0SnpkP2fbMaQO8">
    <mxGraphModel dx="2050" dy="902" grid="1" gridSize="10" guides="1" tooltips="1" connect="1" arrows="1" fold="1" page="1" pageScale="1" pageWidth="850" pageHeight="1100" math="0" shadow="0">
      <root>
        <mxCell id="0" />
        <mxCell id="1" parent="0" />
        <mxCell id="Fy90aLXWYBHKOTLrFkQ5-35" value="" style="group" vertex="1" connectable="0" parent="1">
          <mxGeometry x="160" y="60" width="530" height="900" as="geometry" />
        </mxCell>
        <mxCell id="Fy90aLXWYBHKOTLrFkQ5-1" value="User&lt;div&gt;&lt;br&gt;&lt;/div&gt;" style="shape=umlActor;verticalLabelPosition=bottom;verticalAlign=top;html=1;outlineConnect=0;" vertex="1" parent="Fy90aLXWYBHKOTLrFkQ5-35">
          <mxGeometry x="20" y="410" width="30" height="60" as="geometry" />
        </mxCell>
        <mxCell id="Fy90aLXWYBHKOTLrFkQ5-5" value="Add New Client" style="ellipse;whiteSpace=wrap;html=1;" vertex="1" parent="Fy90aLXWYBHKOTLrFkQ5-35">
          <mxGeometry x="140" y="30" width="140" height="70" as="geometry" />
        </mxCell>
        <mxCell id="Fy90aLXWYBHKOTLrFkQ5-6" value="Edit Client" style="ellipse;whiteSpace=wrap;html=1;" vertex="1" parent="Fy90aLXWYBHKOTLrFkQ5-35">
          <mxGeometry x="265" y="70" width="140" height="70" as="geometry" />
        </mxCell>
        <mxCell id="Fy90aLXWYBHKOTLrFkQ5-7" value="Delete Client" style="ellipse;whiteSpace=wrap;html=1;" vertex="1" parent="Fy90aLXWYBHKOTLrFkQ5-35">
          <mxGeometry x="340" y="150" width="140" height="70" as="geometry" />
        </mxCell>
        <mxCell id="Fy90aLXWYBHKOTLrFkQ5-8" value="View All Clients" style="ellipse;whiteSpace=wrap;html=1;" vertex="1" parent="Fy90aLXWYBHKOTLrFkQ5-35">
          <mxGeometry width="140" height="70" as="geometry" />
        </mxCell>
        <mxCell id="Fy90aLXWYBHKOTLrFkQ5-9" value="View All Products" style="ellipse;whiteSpace=wrap;html=1;" vertex="1" parent="Fy90aLXWYBHKOTLrFkQ5-35">
          <mxGeometry x="350" y="230" width="140" height="70" as="geometry" />
        </mxCell>
        <mxCell id="Fy90aLXWYBHKOTLrFkQ5-10" value="Add New Product" style="ellipse;whiteSpace=wrap;html=1;" vertex="1" parent="Fy90aLXWYBHKOTLrFkQ5-35">
          <mxGeometry x="370" y="310" width="140" height="70" as="geometry" />
        </mxCell>
        <mxCell id="Fy90aLXWYBHKOTLrFkQ5-11" value="Edit Product" style="ellipse;whiteSpace=wrap;html=1;" vertex="1" parent="Fy90aLXWYBHKOTLrFkQ5-35">
          <mxGeometry x="390" y="390" width="140" height="70" as="geometry" />
        </mxCell>
        <mxCell id="Fy90aLXWYBHKOTLrFkQ5-12" value="Delete Product" style="ellipse;whiteSpace=wrap;html=1;" vertex="1" parent="Fy90aLXWYBHKOTLrFkQ5-35">
          <mxGeometry x="370" y="470" width="140" height="70" as="geometry" />
        </mxCell>
        <mxCell id="Fy90aLXWYBHKOTLrFkQ5-13" value="View All Orders" style="ellipse;whiteSpace=wrap;html=1;" vertex="1" parent="Fy90aLXWYBHKOTLrFkQ5-35">
          <mxGeometry x="350" y="550" width="140" height="70" as="geometry" />
        </mxCell>
        <mxCell id="Fy90aLXWYBHKOTLrFkQ5-14" value="Add New Order&lt;div&gt;&lt;font style=&quot;font-size: 9px;&quot;&gt;(select client, select product, insert quantity)&lt;/font&gt;&lt;/div&gt;" style="ellipse;whiteSpace=wrap;html=1;" vertex="1" parent="Fy90aLXWYBHKOTLrFkQ5-35">
          <mxGeometry x="335" y="630" width="140" height="70" as="geometry" />
        </mxCell>
        <mxCell id="Fy90aLXWYBHKOTLrFkQ5-17" value="View Bill" style="ellipse;whiteSpace=wrap;html=1;" vertex="1" parent="Fy90aLXWYBHKOTLrFkQ5-35">
          <mxGeometry x="270" y="700" width="140" height="70" as="geometry" />
        </mxCell>
        <mxCell id="Fy90aLXWYBHKOTLrFkQ5-18" value="Delete Order" style="ellipse;whiteSpace=wrap;html=1;" vertex="1" parent="Fy90aLXWYBHKOTLrFkQ5-35">
          <mxGeometry x="180" y="770" width="140" height="70" as="geometry" />
        </mxCell>
        <mxCell id="Fy90aLXWYBHKOTLrFkQ5-19" value="Refresh Application" style="ellipse;whiteSpace=wrap;html=1;" vertex="1" parent="Fy90aLXWYBHKOTLrFkQ5-35">
          <mxGeometry x="80" y="830" width="140" height="70" as="geometry" />
        </mxCell>
        <mxCell id="Fy90aLXWYBHKOTLrFkQ5-21" value="" style="endArrow=open;endFill=1;endSize=12;html=1;rounded=0;entryX=0.5;entryY=1;entryDx=0;entryDy=0;" edge="1" parent="Fy90aLXWYBHKOTLrFkQ5-35" target="Fy90aLXWYBHKOTLrFkQ5-8">
          <mxGeometry width="160" relative="1" as="geometry">
            <mxPoint x="100" y="430" as="sourcePoint" />
            <mxPoint x="620" y="280" as="targetPoint" />
          </mxGeometry>
        </mxCell>
        <mxCell id="Fy90aLXWYBHKOTLrFkQ5-22" value="" style="endArrow=open;endFill=1;endSize=12;html=1;rounded=0;" edge="1" parent="Fy90aLXWYBHKOTLrFkQ5-35" target="Fy90aLXWYBHKOTLrFkQ5-5">
          <mxGeometry width="160" relative="1" as="geometry">
            <mxPoint x="100" y="430" as="sourcePoint" />
            <mxPoint x="860" y="460" as="targetPoint" />
          </mxGeometry>
        </mxCell>
        <mxCell id="Fy90aLXWYBHKOTLrFkQ5-23" value="" style="endArrow=open;endFill=1;endSize=12;html=1;rounded=0;entryX=0;entryY=1;entryDx=0;entryDy=0;" edge="1" parent="Fy90aLXWYBHKOTLrFkQ5-35" target="Fy90aLXWYBHKOTLrFkQ5-6">
          <mxGeometry width="160" relative="1" as="geometry">
            <mxPoint x="100" y="430" as="sourcePoint" />
            <mxPoint x="860" y="460" as="targetPoint" />
          </mxGeometry>
        </mxCell>
        <mxCell id="Fy90aLXWYBHKOTLrFkQ5-24" value="" style="endArrow=open;endFill=1;endSize=12;html=1;rounded=0;entryX=0;entryY=0.5;entryDx=0;entryDy=0;" edge="1" parent="Fy90aLXWYBHKOTLrFkQ5-35" target="Fy90aLXWYBHKOTLrFkQ5-7">
          <mxGeometry width="160" relative="1" as="geometry">
            <mxPoint x="100" y="430" as="sourcePoint" />
            <mxPoint x="860" y="460" as="targetPoint" />
          </mxGeometry>
        </mxCell>
        <mxCell id="Fy90aLXWYBHKOTLrFkQ5-25" value="" style="endArrow=open;endFill=1;endSize=12;html=1;rounded=0;entryX=0;entryY=0.5;entryDx=0;entryDy=0;" edge="1" parent="Fy90aLXWYBHKOTLrFkQ5-35" target="Fy90aLXWYBHKOTLrFkQ5-9">
          <mxGeometry width="160" relative="1" as="geometry">
            <mxPoint x="100" y="430" as="sourcePoint" />
            <mxPoint x="860" y="460" as="targetPoint" />
          </mxGeometry>
        </mxCell>
        <mxCell id="Fy90aLXWYBHKOTLrFkQ5-26" value="" style="endArrow=open;endFill=1;endSize=12;html=1;rounded=0;entryX=0;entryY=0.5;entryDx=0;entryDy=0;" edge="1" parent="Fy90aLXWYBHKOTLrFkQ5-35" target="Fy90aLXWYBHKOTLrFkQ5-10">
          <mxGeometry width="160" relative="1" as="geometry">
            <mxPoint x="100" y="430" as="sourcePoint" />
            <mxPoint x="860" y="460" as="targetPoint" />
          </mxGeometry>
        </mxCell>
        <mxCell id="Fy90aLXWYBHKOTLrFkQ5-27" value="" style="endArrow=open;endFill=1;endSize=12;html=1;rounded=0;" edge="1" parent="Fy90aLXWYBHKOTLrFkQ5-35" target="Fy90aLXWYBHKOTLrFkQ5-11">
          <mxGeometry width="160" relative="1" as="geometry">
            <mxPoint x="100" y="430" as="sourcePoint" />
            <mxPoint x="580" y="500" as="targetPoint" />
          </mxGeometry>
        </mxCell>
        <mxCell id="Fy90aLXWYBHKOTLrFkQ5-28" value="" style="endArrow=open;endFill=1;endSize=12;html=1;rounded=0;entryX=0;entryY=0.5;entryDx=0;entryDy=0;" edge="1" parent="Fy90aLXWYBHKOTLrFkQ5-35" target="Fy90aLXWYBHKOTLrFkQ5-12">
          <mxGeometry width="160" relative="1" as="geometry">
            <mxPoint x="100" y="430" as="sourcePoint" />
            <mxPoint x="580" y="600" as="targetPoint" />
          </mxGeometry>
        </mxCell>
        <mxCell id="Fy90aLXWYBHKOTLrFkQ5-29" value="" style="endArrow=open;endFill=1;endSize=12;html=1;rounded=0;entryX=0;entryY=0.5;entryDx=0;entryDy=0;" edge="1" parent="Fy90aLXWYBHKOTLrFkQ5-35" target="Fy90aLXWYBHKOTLrFkQ5-13">
          <mxGeometry width="160" relative="1" as="geometry">
            <mxPoint x="100" y="430" as="sourcePoint" />
            <mxPoint x="580" y="600" as="targetPoint" />
          </mxGeometry>
        </mxCell>
        <mxCell id="Fy90aLXWYBHKOTLrFkQ5-30" value="" style="endArrow=open;endFill=1;endSize=12;html=1;rounded=0;entryX=0;entryY=0.5;entryDx=0;entryDy=0;" edge="1" parent="Fy90aLXWYBHKOTLrFkQ5-35" target="Fy90aLXWYBHKOTLrFkQ5-14">
          <mxGeometry width="160" relative="1" as="geometry">
            <mxPoint x="100" y="430" as="sourcePoint" />
            <mxPoint x="580" y="600" as="targetPoint" />
          </mxGeometry>
        </mxCell>
        <mxCell id="Fy90aLXWYBHKOTLrFkQ5-31" value="" style="endArrow=open;endFill=1;endSize=12;html=1;rounded=0;entryX=0;entryY=0;entryDx=0;entryDy=0;" edge="1" parent="Fy90aLXWYBHKOTLrFkQ5-35" target="Fy90aLXWYBHKOTLrFkQ5-17">
          <mxGeometry width="160" relative="1" as="geometry">
            <mxPoint x="100" y="430" as="sourcePoint" />
            <mxPoint x="580" y="600" as="targetPoint" />
          </mxGeometry>
        </mxCell>
        <mxCell id="Fy90aLXWYBHKOTLrFkQ5-32" value="" style="endArrow=open;endFill=1;endSize=12;html=1;rounded=0;entryX=0;entryY=0;entryDx=0;entryDy=0;" edge="1" parent="Fy90aLXWYBHKOTLrFkQ5-35" target="Fy90aLXWYBHKOTLrFkQ5-18">
          <mxGeometry width="160" relative="1" as="geometry">
            <mxPoint x="100" y="430" as="sourcePoint" />
            <mxPoint x="580" y="600" as="targetPoint" />
          </mxGeometry>
        </mxCell>
        <mxCell id="Fy90aLXWYBHKOTLrFkQ5-33" value="" style="endArrow=open;endFill=1;endSize=12;html=1;rounded=0;entryX=0;entryY=0;entryDx=0;entryDy=0;" edge="1" parent="Fy90aLXWYBHKOTLrFkQ5-35" target="Fy90aLXWYBHKOTLrFkQ5-19">
          <mxGeometry width="160" relative="1" as="geometry">
            <mxPoint x="100" y="430" as="sourcePoint" />
            <mxPoint x="340" y="810" as="targetPoint" />
          </mxGeometry>
        </mxCell>
      </root>
    </mxGraphModel>
  </diagram>
</mxfile>
